<svg width="24" height="25" viewBox="0 0 24 25" fill="none" xmlns="http://www.w3.org/2000/svg">
<path d="M14.305 9.5C14.075 9.5 13.8833 9.42333 13.73 9.27C13.5767 9.11667 13.5 8.921 13.5 8.683V5.317C13.5 5.079 13.578 4.88333 13.734 4.73C13.89 4.57667 14.0833 4.5 14.314 4.5H19.194C19.4253 4.5 19.6173 4.57667 19.77 4.73C19.9227 4.88333 19.9993 5.079 20 5.317V8.683C20 8.92167 19.922 9.11733 19.766 9.27C19.61 9.42333 19.4167 9.5 19.186 9.5H14.305ZM4.805 12.5C4.575 12.5 4.38333 12.4233 4.23 12.27C4.07667 12.1167 4 11.9267 4 11.7V5.3C4 5.07333 4.078 4.88333 4.234 4.73C4.39 4.57667 4.58333 4.5 4.814 4.5H9.694C9.92533 4.5 10.1173 4.57667 10.27 4.73C10.4227 4.88333 10.4993 5.07333 10.5 5.3V11.7C10.5 11.9267 10.422 12.1167 10.266 12.27C10.11 12.4233 9.91667 12.5 9.686 12.5H4.805ZM14.305 20.5C14.075 20.5 13.8833 20.4233 13.73 20.27C13.5767 20.1167 13.5 19.9267 13.5 19.7V13.3C13.5 13.0733 13.578 12.8833 13.734 12.73C13.89 12.5767 14.0833 12.5 14.314 12.5H19.194C19.4253 12.5 19.6173 12.5767 19.77 12.73C19.9227 12.8833 19.9993 13.0733 20 13.3V19.7C20 19.9267 19.922 20.1167 19.766 20.27C19.61 20.4233 19.4167 20.5 19.186 20.5H14.305ZM4.805 20.5C4.575 20.5 4.38333 20.4233 4.23 20.27C4.07667 20.1167 4 19.921 4 19.683V16.317C4 16.079 4.078 15.8833 4.234 15.73C4.39 15.5767 4.58333 15.5 4.814 15.5H9.694C9.92533 15.5 10.1173 15.5767 10.27 15.73C10.4227 15.8833 10.4993 16.079 10.5 16.317V19.683C10.5 19.9217 10.422 20.1173 10.266 20.27C10.11 20.4233 9.91667 20.5 9.686 20.5H4.805Z" fill="white"/>
</svg>
