<svg width="24" height="25" viewBox="0 0 24 25" fill="none" xmlns="http://www.w3.org/2000/svg">
<path fill-rule="evenodd" clip-rule="evenodd" d="M5.586 5.086C5 5.672 5 6.614 5 8.5V17.5C5 19.386 5 20.328 5.586 20.914C6.172 21.5 7.114 21.5 9 21.5H15C16.886 21.5 17.828 21.5 18.414 20.914C19 20.328 19 19.386 19 17.5V8.5C19 6.614 19 5.672 18.414 5.086C17.828 4.5 16.886 4.5 15 4.5H9C7.114 4.5 6.172 4.5 5.586 5.086ZM9 8.5C8.73478 8.5 8.48043 8.60536 8.29289 8.79289C8.10536 8.98043 8 9.23478 8 9.5C8 9.76522 8.10536 10.0196 8.29289 10.2071C8.48043 10.3946 8.73478 10.5 9 10.5H15C15.2652 10.5 15.5196 10.3946 15.7071 10.2071C15.8946 10.0196 16 9.76522 16 9.5C16 9.23478 15.8946 8.98043 15.7071 8.79289C15.5196 8.60536 15.2652 8.5 15 8.5H9ZM9 12.5C8.73478 12.5 8.48043 12.6054 8.29289 12.7929C8.10536 12.9804 8 13.2348 8 13.5C8 13.7652 8.10536 14.0196 8.29289 14.2071C8.48043 14.3946 8.73478 14.5 9 14.5H15C15.2652 14.5 15.5196 14.3946 15.7071 14.2071C15.8946 14.0196 16 13.7652 16 13.5C16 13.2348 15.8946 12.9804 15.7071 12.7929C15.5196 12.6054 15.2652 12.5 15 12.5H9ZM9 16.5C8.73478 16.5 8.48043 16.6054 8.29289 16.7929C8.10536 16.9804 8 17.2348 8 17.5C8 17.7652 8.10536 18.0196 8.29289 18.2071C8.48043 18.3946 8.73478 18.5 9 18.5H13C13.2652 18.5 13.5196 18.3946 13.7071 18.2071C13.8946 18.0196 14 17.7652 14 17.5C14 17.2348 13.8946 16.9804 13.7071 16.7929C13.5196 16.6054 13.2652 16.5 13 16.5H9Z" fill="#2D1817"/>
</svg>
