<svg width="24" height="25" viewBox="0 0 24 25" fill="none" xmlns="http://www.w3.org/2000/svg">
<mask id="mask0_1690_3251" style="mask-type:luminance" maskUnits="userSpaceOnUse" x="2" y="4" width="21" height="17">
<path d="M14.0002 4.5H10.0002C6.22925 4.5 4.34325 4.5 3.17225 5.672C2.32825 6.515 2.09225 7.729 2.02625 9.75H21.9743C21.9083 7.729 21.6722 6.515 20.8282 5.672C19.6572 4.5 17.7712 4.5 14.0002 4.5ZM10.0002 20.5H14.0002C17.7712 20.5 19.6572 20.5 20.8282 19.328C21.9992 18.156 22.0002 16.271 22.0002 12.5C22.0002 12.0587 21.9996 11.642 21.9982 11.25H2.00225C2.00025 11.642 1.99958 12.0587 2.00025 12.5C2.00025 16.271 2.00025 18.157 3.17225 19.328C4.34425 20.499 6.22925 20.5 10.0002 20.5Z" fill="white"/>
<path fill-rule="evenodd" clip-rule="evenodd" d="M5.25 16.5C5.25 16.3011 5.32902 16.1103 5.46967 15.9697C5.61032 15.829 5.80109 15.75 6 15.75H10C10.1989 15.75 10.3897 15.829 10.5303 15.9697C10.671 16.1103 10.75 16.3011 10.75 16.5C10.75 16.6989 10.671 16.8897 10.5303 17.0303C10.3897 17.171 10.1989 17.25 10 17.25H6C5.80109 17.25 5.61032 17.171 5.46967 17.0303C5.32902 16.8897 5.25 16.6989 5.25 16.5ZM11.75 16.5C11.75 16.3011 11.829 16.1103 11.9697 15.9697C12.1103 15.829 12.3011 15.75 12.5 15.75H14C14.1989 15.75 14.3897 15.829 14.5303 15.9697C14.671 16.1103 14.75 16.3011 14.75 16.5C14.75 16.6989 14.671 16.8897 14.5303 17.0303C14.3897 17.171 14.1989 17.25 14 17.25H12.5C12.3011 17.25 12.1103 17.171 11.9697 17.0303C11.829 16.8897 11.75 16.6989 11.75 16.5Z" fill="black"/>
</mask>
<g mask="url(#mask0_1690_3251)">
<path d="M0 0.5H24V24.5H0V0.5Z" fill="#2D1817"/>
</g>
</svg>
