<svg width="24" height="25" viewBox="0 0 24 25" fill="none" xmlns="http://www.w3.org/2000/svg">
<path fill-rule="evenodd" clip-rule="evenodd" d="M17.5556 9.74897V11.0158C17.9633 11.1227 18.3489 11.2859 18.7022 11.4974L19.5867 10.6007L21.1589 12.1927L20.2733 13.0883C20.4822 13.4461 20.6433 13.8365 20.7489 14.2494H22V16.4996H20.7489C20.6433 16.9125 20.4822 17.3029 20.2733 17.6607L21.1589 18.5563L19.5867 20.1483L18.7022 19.2516C18.3441 19.4656 17.9581 19.6277 17.5556 19.7331V21H15.3333V19.7331C14.9307 19.6277 14.5448 19.4656 14.1867 19.2516L13.3022 20.1483L11.73 18.5563L12.6156 17.6607C12.4042 17.2981 12.2441 16.9072 12.14 16.4996H10.8889V14.2494H12.14C12.2456 13.8365 12.4067 13.4461 12.6156 13.0883L11.73 12.1927L13.3022 10.6007L14.1867 11.4974C14.5448 11.2833 14.9307 11.1212 15.3333 11.0158V9.74897H17.5556ZM18.0067 13.7746L18.0244 13.7926C18.4178 14.1954 18.6622 14.7489 18.6667 15.3587V15.3902C18.6637 15.8333 18.5317 16.2656 18.2871 16.633C18.0425 17.0004 17.6963 17.2865 17.2918 17.4554C16.8873 17.6244 16.4425 17.6686 16.0133 17.5826C15.584 17.4967 15.1894 17.2843 14.8789 16.9721L14.8678 16.9586C14.4627 16.5345 14.2383 15.9663 14.2429 15.3763C14.2476 14.7863 14.4809 14.2217 14.8926 13.8042C15.3044 13.3867 15.8616 13.1497 16.4442 13.1441C17.0269 13.1386 17.5873 13.365 18.0067 13.7746ZM4.22222 7.49877C4.22245 6.87443 4.35096 6.25698 4.59958 5.68566C4.84821 5.11434 5.21151 4.60165 5.66639 4.18019C6.12127 3.75872 6.65777 3.43771 7.24179 3.23755C7.82581 3.03739 8.44458 2.96247 9.05874 3.01755C9.6729 3.07262 10.269 3.25649 10.8092 3.55747C11.3494 3.85844 11.8219 4.26993 12.1965 4.76579C12.5712 5.26164 12.8398 5.831 12.9854 6.43767C13.131 7.04435 13.1504 7.67506 13.0422 8.28971C11.4768 9.0632 10.2116 10.3443 9.44778 11.9294C8.80807 12.0451 8.15111 12.0173 7.52316 11.848C6.89522 11.6787 6.31158 11.372 5.81336 10.9496C5.31514 10.5271 4.91445 9.99921 4.63954 9.40299C4.36463 8.80677 4.22218 8.15677 4.22222 7.49877ZM8.98889 13.1243H6.44444C5.2657 13.1243 4.13524 13.5984 3.30175 14.4424C2.46825 15.2864 2 16.4311 2 17.6247V18.7498C2 19.3466 2.23413 19.9189 2.65087 20.3409C3.06762 20.7629 3.63285 21 4.22222 21H11.0011C10.261 20.2675 9.67317 19.3924 9.27224 18.4262C8.87132 17.4601 8.66542 16.4225 8.66667 15.3745C8.66667 14.5925 8.77889 13.8376 8.98889 13.1243Z" fill="white"/>
</svg>
