<svg width="25" height="25" viewBox="0 0 25 25" fill="none" xmlns="http://www.w3.org/2000/svg">
<path fill-rule="evenodd" clip-rule="evenodd" d="M21.9549 5.91583C22.0499 6.06004 22.0922 6.23261 22.0747 6.40442C22.0573 6.57622 21.981 6.73673 21.8589 6.85883L12.6659 16.0508C12.5718 16.1448 12.4545 16.2121 12.3259 16.2458L8.49689 17.2458C8.37032 17.2788 8.23732 17.2782 8.11109 17.2439C7.98485 17.2096 7.86978 17.1429 7.77729 17.0504C7.68479 16.9579 7.6181 16.8429 7.58382 16.7166C7.54955 16.5904 7.54888 16.4574 7.58189 16.3308L8.58189 12.5028C8.6118 12.3882 8.66679 12.2816 8.74289 12.1908L17.9699 2.96983C18.1105 2.82938 18.3011 2.75049 18.4999 2.75049C18.6986 2.75049 18.8893 2.82938 19.0299 2.96983L21.8589 5.79783C21.8938 5.83467 21.9259 5.87411 21.9549 5.91583ZM20.2679 6.32783L18.4999 4.56083L9.98189 13.0788L9.35689 15.4718L11.7499 14.8468L20.2679 6.32783Z" fill="#8E8E93"/>
<path d="M20.141 17.6601C20.4143 15.324 20.5016 12.97 20.402 10.6201C20.3997 10.5647 20.4088 10.5094 20.429 10.4578C20.4491 10.4061 20.4798 10.3592 20.519 10.3201L21.503 9.33608C21.5299 9.30904 21.564 9.29033 21.6013 9.28222C21.6385 9.27411 21.6774 9.27693 21.7131 9.29034C21.7488 9.30375 21.7798 9.32719 21.8025 9.35783C21.8252 9.38847 21.8386 9.42502 21.841 9.46308C22.0257 12.2543 21.9554 15.0566 21.631 17.8351C21.395 19.8571 19.771 21.4421 17.758 21.6671C14.2633 22.0538 10.7367 22.0538 7.24201 21.6671C5.23001 21.4421 3.60501 19.8571 3.36901 17.8351C2.95512 14.2905 2.95512 10.7097 3.36901 7.16508C3.60501 5.14308 5.22901 3.55808 7.24201 3.33308C9.89446 3.04012 12.5667 2.96888 15.231 3.12008C15.2691 3.12281 15.3057 3.13642 15.3363 3.15929C15.367 3.18215 15.3904 3.21332 15.4039 3.2491C15.4173 3.28487 15.4203 3.32376 15.4123 3.36115C15.4044 3.39854 15.3859 3.43287 15.359 3.46008L14.366 4.45208C14.3272 4.49092 14.2808 4.52136 14.2297 4.54149C14.1786 4.56162 14.1239 4.57101 14.069 4.56908C11.8458 4.49293 9.61993 4.57815 7.40901 4.82408C6.76295 4.89558 6.15986 5.1828 5.69717 5.63933C5.23447 6.09586 4.93919 6.69504 4.85901 7.34008C4.45787 10.7684 4.45787 14.2318 4.85901 17.6601C4.93919 18.3051 5.23447 18.9043 5.69717 19.3608C6.15986 19.8174 6.76295 20.1046 7.40901 20.1761C10.764 20.5511 14.236 20.5511 17.592 20.1761C18.2381 20.1046 18.8412 19.8174 19.3039 19.3608C19.7666 18.9043 20.0608 18.3051 20.141 17.6601Z" fill="#8E8E93"/>
</svg>
