<svg width="21" height="21" viewBox="0 0 21 21" fill="none" xmlns="http://www.w3.org/2000/svg">
<path d="M9 3H12C12 2.60218 11.842 2.22064 11.5607 1.93934C11.2794 1.65804 10.8978 1.5 10.5 1.5C10.1022 1.5 9.72064 1.65804 9.43934 1.93934C9.15804 2.22064 9 2.60218 9 3ZM7.5 3C7.5 2.20435 7.81607 1.44129 8.37868 0.87868C8.94129 0.316071 9.70435 0 10.5 0C11.2956 0 12.0587 0.316071 12.6213 0.87868C13.1839 1.44129 13.5 2.20435 13.5 3H19.5C19.6989 3 19.8897 3.07902 20.0303 3.21967C20.171 3.36032 20.25 3.55109 20.25 3.75C20.25 3.94891 20.171 4.13968 20.0303 4.28033C19.8897 4.42098 19.6989 4.5 19.5 4.5H18.654L16.8465 17.757C16.7239 18.6554 16.28 19.479 15.5968 20.0752C14.9137 20.6714 14.0377 21 13.131 21H7.869C6.96228 21 6.08626 20.6714 5.40315 20.0752C4.72004 19.479 4.27609 18.6554 4.1535 17.757L2.346 4.5H1.5C1.30109 4.5 1.11032 4.42098 0.96967 4.28033C0.829018 4.13968 0.75 3.94891 0.75 3.75C0.75 3.55109 0.829018 3.36032 0.96967 3.21967C1.11032 3.07902 1.30109 3 1.5 3H7.5ZM9 8.25C9 8.05109 8.92098 7.86032 8.78033 7.71967C8.63968 7.57902 8.44891 7.5 8.25 7.5C8.05109 7.5 7.86032 7.57902 7.71967 7.71967C7.57902 7.86032 7.5 8.05109 7.5 8.25V15.75C7.5 15.9489 7.57902 16.1397 7.71967 16.2803C7.86032 16.421 8.05109 16.5 8.25 16.5C8.44891 16.5 8.63968 16.421 8.78033 16.2803C8.92098 16.1397 9 15.9489 9 15.75V8.25ZM12.75 7.5C12.9489 7.5 13.1397 7.57902 13.2803 7.71967C13.421 7.86032 13.5 8.05109 13.5 8.25V15.75C13.5 15.9489 13.421 16.1397 13.2803 16.2803C13.1397 16.421 12.9489 16.5 12.75 16.5C12.5511 16.5 12.3603 16.421 12.2197 16.2803C12.079 16.1397 12 15.9489 12 15.75V8.25C12 8.05109 12.079 7.86032 12.2197 7.71967C12.3603 7.57902 12.5511 7.5 12.75 7.5ZM5.64 17.5545C5.71361 18.0934 5.97997 18.5875 6.38977 18.9451C6.79956 19.3028 7.32506 19.4999 7.869 19.5H13.131C13.6752 19.5003 14.2011 19.3033 14.6112 18.9456C15.0213 18.5879 15.2879 18.0937 15.3615 17.5545L17.1405 4.5H3.8595L5.64 17.5545Z" fill="#FF3B30"/>
</svg>
