<svg width="48" height="20" viewBox="0 0 48 20" fill="none" xmlns="http://www.w3.org/2000/svg">
<path d="M42.5566 12.8481H42.5898L45.3262 5.97998H47.25L41.3369 19.7505H39.5127L41.7109 14.9331L37.8311 5.97998H39.7539L42.5566 12.8481ZM33.3027 5.66748C34.6105 5.66748 35.644 6.02368 36.4023 6.72607C37.1607 7.42854 37.5342 8.41028 37.5342 9.64795V15.5464H35.8418V14.2192H35.7646C35.0284 15.3118 34.0615 15.8578 32.8418 15.8579C31.8087 15.8579 30.9287 15.5458 30.2363 14.9214C29.5552 14.3417 29.1705 13.4834 29.1924 12.5806C29.1924 11.5882 29.5664 10.8073 30.3027 10.2163C31.039 9.62546 32.028 9.33548 33.2588 9.33545C34.3138 9.33545 35.1711 9.53645 35.8525 9.91553V9.50244C35.8524 8.88931 35.5885 8.31002 35.127 7.90869C34.6544 7.48501 34.0503 7.25049 33.4238 7.25049C32.4347 7.2505 31.6545 7.67457 31.083 8.52197L29.5225 7.52881C30.3577 6.29143 31.6215 5.66754 33.3027 5.66748ZM24.918 1.56396C26.0498 1.54179 27.149 1.97612 27.9512 2.77881C29.5558 4.29523 29.6541 6.84872 28.1484 8.48779L27.9512 8.68896C27.127 9.48053 26.1157 9.88222 24.918 9.88232H21.9941V15.5464H20.2246V1.56396H24.918ZM33.5342 10.7847C32.82 10.7847 32.2159 10.9636 31.7324 11.3091C31.2598 11.6547 31.0176 12.0897 31.0176 12.6138C31.0176 13.082 31.237 13.5171 31.5996 13.7847C31.9952 14.0968 32.4791 14.2635 32.9736 14.2524C33.7211 14.2524 34.4362 13.9517 34.9639 13.4165C35.5464 12.859 35.8428 12.201 35.8428 11.4429C35.2932 10.9969 34.5234 10.7735 33.5342 10.7847ZM21.9941 8.16455H24.9619C25.6214 8.18685 26.2593 7.9194 26.71 7.43994C27.6332 6.4699 27.6115 4.90876 26.6553 3.97217C26.2046 3.52616 25.5995 3.28076 24.9619 3.28076H21.9941V8.16455Z" fill="#3C4043"/>
<path d="M15.8854 8.65527C15.8854 8.10891 15.8414 7.56255 15.7535 7.02734H8.29102V10.1159H12.5663C12.3904 11.1083 11.8189 12.0003 10.9837 12.5578V14.5649H13.5334C15.0281 13.1711 15.8854 11.1083 15.8854 8.65527Z" fill="#4285F4"/>
<path d="M8.29145 16.505C10.4236 16.505 12.226 15.7914 13.5339 14.5649L10.9841 12.5579C10.2697 13.0485 9.35752 13.3272 8.29145 13.3272C6.22525 13.3272 4.47777 11.9112 3.85132 10.0156H1.22461V12.0896C2.56544 14.7991 5.30206 16.505 8.29145 16.505Z" fill="#34A853"/>
<path d="M3.85127 10.0157C3.52151 9.02335 3.52151 7.94179 3.85127 6.93827V4.87549H1.22415C0.0919515 7.13897 0.0919515 9.81502 1.22415 12.0785L3.85127 10.0157Z" fill="#FBBC04"/>
<path d="M8.29145 3.62653C9.42346 3.60423 10.5115 4.03908 11.3248 4.83075L13.5888 2.53381C12.1491 1.17349 10.2587 0.426427 8.29145 0.448727C5.30206 0.448727 2.56544 2.16585 1.22461 4.87535L3.85132 6.94928C4.47777 5.0426 6.22525 3.62653 8.29145 3.62653Z" fill="#EA4335"/>
</svg>
