<svg width="30" height="30" viewBox="0 0 30 30" fill="none" xmlns="http://www.w3.org/2000/svg">
<path d="M8.20312 25.7227L19.7578 14.8477L25.1953 20.2852M8.20312 25.7227H21.7969C24.0492 25.7227 25.875 23.8968 25.875 21.6445V14.8477M8.20312 25.7227C5.95084 25.7227 4.125 23.8968 4.125 21.6445V8.05078C4.125 5.7985 5.95084 3.97266 8.20312 3.97266H17.0391M20.4375 6.73964L23.2177 3.97266M23.2177 3.97266L25.875 6.61456M23.2177 3.97266V10.7695M12.2812 10.0898C12.2812 11.216 11.3683 12.1289 10.2422 12.1289C9.11604 12.1289 8.20312 11.216 8.20312 10.0898C8.20312 8.9637 9.11604 8.05078 10.2422 8.05078C11.3683 8.05078 12.2812 8.9637 12.2812 10.0898Z" stroke="#9CB31A" stroke-width="1.20079" stroke-linecap="round" stroke-linejoin="round"/>
</svg>
