<svg width="42" height="26" viewBox="0 0 42 26" fill="none" xmlns="http://www.w3.org/2000/svg">
<path d="M28.7852 0.941406C35.5463 0.941406 41.0273 6.48652 41.0273 13.3262C41.0271 20.1656 35.5462 25.71 28.7852 25.71C25.7539 25.7099 22.9818 24.5932 20.8438 22.7471C18.7058 24.5929 15.9344 25.71 12.9033 25.71C6.14231 25.71 0.66139 20.1656 0.661133 13.3262C0.661133 6.48652 6.14216 0.941406 12.9033 0.941406C15.9341 0.94141 18.7058 2.05778 20.8438 3.90332C22.9817 2.05748 25.7541 0.941456 28.7852 0.941406Z" fill="#ED0006"/>
<path d="M28.7852 0.941406C35.5463 0.941406 41.0273 6.48652 41.0273 13.3262C41.0271 20.1656 35.5462 25.71 28.7852 25.71C25.7541 25.7099 22.9827 24.5929 20.8447 22.7471C23.4754 20.4757 25.1454 17.0992 25.1455 13.3262C25.1455 9.55274 23.4758 6.17481 20.8447 3.90332C22.9826 2.05777 25.7544 0.941456 28.7852 0.941406Z" fill="#F9A000"/>
<path d="M20.8438 3.90381C23.475 6.1753 25.1455 9.55211 25.1455 13.3257C25.1455 17.099 23.4748 20.4751 20.8438 22.7466C18.2132 20.4751 16.543 17.0987 16.543 13.3257C16.543 9.55248 18.2129 6.17529 20.8438 3.90381Z" fill="#FF5E00"/>
</svg>
