<svg width="39" height="34" viewBox="0 0 39 34" fill="none" xmlns="http://www.w3.org/2000/svg">
<path fill-rule="evenodd" clip-rule="evenodd" d="M5.38684 23.5757H2.49784C2.30015 23.5757 2.13201 23.7207 2.10118 23.9177L0.932718 31.3972C0.909494 31.5448 1.0227 31.6779 1.17098 31.6779H2.55022C2.74791 31.6779 2.91605 31.5328 2.94688 31.3354L3.26203 29.3181C3.29243 29.1206 3.46098 28.9757 3.65827 28.9757H4.57282C6.47591 28.9757 7.57417 28.0459 7.86115 26.2035C7.99037 25.3974 7.86662 24.764 7.49265 24.3204C7.08212 23.8334 6.35373 23.5757 5.38684 23.5757ZM5.72015 26.3075C5.56219 27.3541 4.77011 27.3541 4.00424 27.3541H3.56828L3.87413 25.3994C3.89229 25.2813 3.99367 25.1943 4.11196 25.1943H4.31177C4.83347 25.1943 5.32565 25.1943 5.57999 25.4945C5.73149 25.6737 5.77801 25.9398 5.72015 26.3075ZM14.0228 26.2739H12.6393C12.5214 26.2739 12.4196 26.361 12.4014 26.4792L12.3402 26.8698L12.2434 26.7283C11.9439 26.2893 11.2761 26.1427 10.6095 26.1427C9.08061 26.1427 7.77494 27.3117 7.52061 28.9516C7.38846 29.7695 7.57632 30.5517 8.03592 31.0972C8.45759 31.5987 9.06086 31.8077 9.77851 31.8077C11.0103 31.8077 11.6935 31.008 11.6935 31.008L11.6317 31.3962C11.6085 31.5446 11.7217 31.6777 11.8691 31.6777H13.1153C13.3135 31.6777 13.4807 31.5326 13.512 31.3352L14.2597 26.5546C14.2834 26.4075 14.1706 26.2739 14.0228 26.2739ZM12.0943 28.9925C11.9608 29.7904 11.3334 30.3261 10.5335 30.3261C10.1318 30.3261 9.81057 30.196 9.60452 29.9495C9.40004 29.7048 9.32223 29.3562 9.38733 28.9682C9.51205 28.1769 10.1499 27.6239 10.9378 27.6239C11.3305 27.6239 11.6499 27.7556 11.8603 28.0042C12.071 28.2555 12.1547 28.606 12.0943 28.9925ZM20.0006 26.2737H21.391C21.5857 26.2737 21.6992 26.4942 21.5886 26.6554L16.9647 33.394C16.8898 33.5031 16.7665 33.5681 16.6347 33.5681H15.2461C15.0507 33.5681 14.9365 33.3458 15.0497 33.1842L16.4895 31.1323L14.9582 26.5952C14.9052 26.4375 15.0205 26.2737 15.1867 26.2737H16.5528C16.7303 26.2737 16.8869 26.3913 16.9381 26.5629L17.7508 29.3031L19.6683 26.4515C19.7434 26.3402 19.8681 26.2737 20.0006 26.2737Z" fill="#253B80"/>
<path fill-rule="evenodd" clip-rule="evenodd" d="M35.0727 31.3976L36.2583 23.7813C36.2765 23.6631 36.378 23.5761 36.4959 23.5757H37.8307C37.9781 23.5757 38.0912 23.7091 38.068 23.8567L36.8988 31.3358C36.8683 31.5332 36.7001 31.6783 36.5021 31.6783H35.31C35.1626 31.6783 35.0494 31.5452 35.0727 31.3976ZM25.9924 23.5761H23.1029C22.9056 23.5761 22.7375 23.7211 22.7066 23.9181L21.5382 31.3976C21.5149 31.5452 21.6281 31.6783 21.7757 31.6783H23.2583C23.3961 31.6783 23.514 31.5768 23.5355 31.4387L23.8671 29.3185C23.8976 29.121 24.0661 28.9761 24.2633 28.9761H25.1774C27.0809 28.9761 28.179 28.0463 28.4661 26.2038C28.5957 25.3978 28.4712 24.7644 28.0974 24.3208C27.6871 23.8338 26.9593 23.5761 25.9924 23.5761ZM26.3257 26.3079C26.1682 27.3545 25.376 27.3545 24.6097 27.3545H24.1742L24.4805 25.3998C24.4987 25.2817 24.5992 25.1947 24.7178 25.1947H24.9176C25.439 25.1947 25.9316 25.1947 26.1858 25.4949C26.3375 25.6741 26.3836 25.9402 26.3257 26.3079ZM34.6276 26.2743H33.2451C33.1262 26.2743 33.0253 26.3613 33.0075 26.4796L32.9464 26.8702L32.8492 26.7287C32.5497 26.2897 31.8823 26.1431 31.2157 26.1431C29.6868 26.1431 28.3815 27.3121 28.1272 28.952C27.9954 29.7699 28.1825 30.5521 28.6421 31.0976C29.0645 31.5991 29.667 31.8081 30.3847 31.8081C31.6164 31.8081 32.2995 31.0084 32.2995 31.0084L32.2379 31.3966C32.2146 31.545 32.3278 31.6781 32.4762 31.6781H33.7219C33.9191 31.6781 34.0872 31.533 34.1181 31.3356L34.8663 26.555C34.8891 26.4079 34.7759 26.2743 34.6276 26.2743ZM32.6993 28.9929C32.5665 29.7908 31.9384 30.3265 31.1383 30.3265C30.7373 30.3265 30.4156 30.1964 30.2093 29.9499C30.0048 29.7052 29.928 29.3566 29.9923 28.9686C30.1176 28.1773 30.7547 27.6243 31.5426 27.6243C31.9355 27.6243 32.2547 27.756 32.4653 28.0046C32.6768 28.2559 32.7604 28.6064 32.6993 28.9929Z" fill="#179BD7"/>
<path d="M16.078 20.9004L16.4332 18.6228L15.6421 18.6042H11.8643L14.4897 1.79703C14.4977 1.74629 14.5243 1.69898 14.563 1.66539C14.6017 1.63179 14.6513 1.61328 14.703 1.61328H21.073C23.1878 1.61328 24.6471 2.05758 25.4091 2.93451C25.7663 3.3459 25.9938 3.77579 26.1039 4.24889C26.2192 4.74531 26.2214 5.33838 26.1086 6.06174L26.1004 6.11453V6.57802L26.4577 6.78235C26.7586 6.94346 26.9975 7.12791 27.1808 7.33909C27.4866 7.69082 27.6842 8.13786 27.7677 8.66786C27.8539 9.21295 27.8254 9.86156 27.6842 10.5959C27.5212 11.4406 27.2577 12.1763 26.9019 12.7783C26.5744 13.333 26.1575 13.793 25.6625 14.1496C25.1898 14.4883 24.6281 14.7455 23.9932 14.9101C23.3778 15.0717 22.6764 15.1534 21.9069 15.1534H21.4112C21.0567 15.1534 20.7123 15.2823 20.4421 15.5134C20.1712 15.7493 19.9917 16.0714 19.9368 16.4239L19.8995 16.6289L19.2719 20.6432L19.2434 20.7907C19.236 20.8374 19.2231 20.8607 19.2041 20.8765C19.1871 20.8907 19.1626 20.9004 19.1388 20.9004H16.078Z" fill="#253B80"/>
<path d="M26.7963 6.16846C26.7774 6.29118 26.7557 6.41665 26.7312 6.54555C25.891 10.9001 23.0171 12.4044 19.3464 12.4044H17.4775C17.0287 12.4044 16.6504 12.7335 16.5804 13.1805L15.6235 19.3075L15.3526 21.0441C15.307 21.3376 15.5313 21.6023 15.8245 21.6023H19.1394C19.5319 21.6023 19.8652 21.3143 19.927 20.9236L19.9597 20.7534L20.5839 16.7547L20.6239 16.5355C20.6849 16.1433 21.019 15.8553 21.4116 15.8553H21.9073C25.1188 15.8553 27.633 14.5389 28.3679 10.7294C28.6748 9.13797 28.5158 7.8092 27.7036 6.87466C27.4579 6.59286 27.1529 6.35906 26.7963 6.16846Z" fill="#179BD7"/>
<path d="M25.9163 5.81516C25.788 5.77745 25.6555 5.74316 25.5196 5.71231C25.3832 5.68216 25.2432 5.65541 25.0993 5.6321C24.5953 5.54982 24.0433 5.51074 23.4517 5.51074H18.4589C18.336 5.51074 18.2193 5.53885 18.1147 5.58959C17.8844 5.70134 17.7133 5.92145 17.6719 6.1909L16.6096 12.9829L16.5791 13.181C16.6491 12.734 17.0274 12.4049 17.4762 12.4049H19.3451C23.0158 12.4049 25.8899 10.8999 26.7299 6.54606C26.7549 6.41716 26.776 6.29169 26.795 6.16897C26.5825 6.05514 26.3522 5.95778 26.1043 5.87481C26.0433 5.85424 25.9802 5.83437 25.9163 5.81516Z" fill="#222D65"/>
<path d="M17.6725 6.19039C17.7139 5.92092 17.8852 5.70084 18.1152 5.58976C18.2206 5.53901 18.3367 5.51091 18.4595 5.51091H23.4525C24.044 5.51091 24.5961 5.54999 25.0999 5.63227C25.244 5.65558 25.3839 5.68232 25.5204 5.71248C25.6562 5.74335 25.7886 5.77763 25.917 5.81533C25.9808 5.83453 26.0439 5.85441 26.1057 5.8743C26.3536 5.95726 26.5838 6.05531 26.7963 6.16844C27.0464 4.55924 26.7944 3.46358 25.9327 2.47145C24.9826 1.37923 23.2678 0.911621 21.0736 0.911621H14.7034C14.2551 0.911621 13.8729 1.24071 13.8035 1.68845L11.1504 18.6684C11.098 19.0043 11.3546 19.3075 11.6901 19.3075H15.623L16.6104 12.9824L17.6725 6.19039Z" fill="#253B80"/>
</svg>
