<svg width="25" height="25" viewBox="0 0 25 25" fill="none" xmlns="http://www.w3.org/2000/svg">
<path d="M5.5 17.5C5.5 18.0304 5.71071 18.5391 6.08579 18.9142C6.46086 19.2893 6.96957 19.5 7.5 19.5C8.03043 19.5 8.53914 19.2893 8.91421 18.9142C9.28929 18.5391 9.5 18.0304 9.5 17.5C9.5 16.9696 9.28929 16.4609 8.91421 16.0858C8.53914 15.7107 8.03043 15.5 7.5 15.5C6.96957 15.5 6.46086 15.7107 6.08579 16.0858C5.71071 16.4609 5.5 16.9696 5.5 17.5ZM15.5 17.5C15.5 18.0304 15.7107 18.5391 16.0858 18.9142C16.4609 19.2893 16.9696 19.5 17.5 19.5C18.0304 19.5 18.5391 19.2893 18.9142 18.9142C19.2893 18.5391 19.5 18.0304 19.5 17.5C19.5 16.9696 19.2893 16.4609 18.9142 16.0858C18.5391 15.7107 18.0304 15.5 17.5 15.5C16.9696 15.5 16.4609 15.7107 16.0858 16.0858C15.7107 16.4609 15.5 16.9696 15.5 17.5Z" stroke="white" stroke-width="2" stroke-linecap="round" stroke-linejoin="round"/>
<path d="M5.5 17.5H3.5V6.5C3.5 6.23478 3.60536 5.98043 3.79289 5.79289C3.98043 5.60536 4.23478 5.5 4.5 5.5H13.5V11.5H8.5M8.5 11.5L10.5 13.5M8.5 11.5L10.5 9.5M9.5 17.5H15.5M13.5 6.5H18.5L21.5 11.5V17.5H19.5" stroke="white" stroke-width="2" stroke-linecap="round" stroke-linejoin="round"/>
</svg>
