<svg width="48" height="16" viewBox="0 0 48 16" fill="none" xmlns="http://www.w3.org/2000/svg">
<path fill-rule="evenodd" clip-rule="evenodd" d="M12.34 15.4839H8.28105L5.23737 4.11043C5.09291 3.58725 4.78616 3.12473 4.33496 2.90673C3.20891 2.35891 1.96809 1.92292 0.614461 1.70304V1.26516H7.15303C8.05545 1.26516 8.73226 1.92292 8.84506 2.68685L10.4243 10.8909L14.4812 1.26516H18.4273L12.34 15.4839ZM20.6845 15.4839H16.8512L20.0077 1.26516H23.841L20.6845 15.4839ZM28.7996 5.20397C28.9124 4.43816 29.5892 4.00028 30.3789 4.00028C31.6197 3.89033 32.9713 4.11022 34.0994 4.65615L34.7762 1.59478C33.6481 1.1569 32.4073 0.937011 31.2813 0.937011C27.5608 0.937011 24.8535 2.90652 24.8535 5.63996C24.8535 7.71941 26.7712 8.81127 28.1248 9.46904C29.5892 10.1249 30.1533 10.5628 30.0404 11.2187C30.0404 12.2025 28.9124 12.6404 27.7864 12.6404C26.4328 12.6404 25.0791 12.3124 23.8403 11.7646L23.1635 14.8279C24.5171 15.3738 25.9815 15.5937 27.3352 15.5937C31.5069 15.7017 34.0994 13.7341 34.0994 10.7808C34.0994 7.06165 28.7996 6.84365 28.7996 5.20397V5.20397ZM47.5155 15.4839L44.4718 1.26516H41.2025C40.5257 1.26516 39.8489 1.70304 39.6233 2.35891L33.9871 15.4839H37.9332L38.7208 13.4064H43.5694L44.0206 15.4839H47.5155ZM41.7665 5.09438L42.8926 10.4532H39.7361L41.7665 5.09438Z" fill="#172B85"/>
</svg>
